<?xml version="1.0" encoding="UTF-8"?>
<svg id="Camada_2" data-name="Camada 2" xmlns="http://www.w3.org/2000/svg" viewBox="0 0 433.98 581.67">
  <defs>
    <style>
      .cls-1 {
        fill: #35787f;
      }

      .cls-1, .cls-2, .cls-3 {
        stroke-width: 0px;
      }

      .cls-2 {
        fill: #6cbdce;
      }

      .cls-3 {
        fill: #010101;
      }
    </style>
  </defs>
  <g id="Camada_1-2" data-name="Camada 1">
    <g>
      <g>
        <g>
          <path class="cls-1" d="M197.97,316.29c-.57-1.04-1.11-2.09-1.7-3.12-4.58-8.04-12.26-11.43-20.7-13.48-8.51-2.07-16.84-1.23-25.25,1.36-5.12,1.58-9.43,4.51-12.83,7.93-5.4,5.43-8.66,12.44-9.67,20.37-1.47,11.57,2.27,21.4,8.99,30.49,3.85,5.22,8.54,9.58,13.33,13.88,5.91,5.3,12.75,9.24,19.35,13.54,4.48,2.93,8.82,6.11,13.57,8.56,7.35,3.79,14.21,8.34,20.72,13.37,3.94,3.05,8,6.06,11.23,9.93,1.05,1.26,1.47.77,2.4-.02,4.48-3.77,8.54-8.09,13.47-11.27,4.49-2.89,8.93-5.86,13.49-8.65,7.04-4.31,13.86-9.06,20.9-13.39,4.98-3.07,9.61-6.6,14.45-9.81,4.7-3.11,8.57-7.03,12.21-11.01,10-10.94,15.85-23.59,12.67-38.92-1.13-5.46-3.23-10.75-7.06-14.79-5.99-6.3-13.29-10.7-22.06-12.15-2.92-.48-5.87-.81-8.94-1.22.57-2.1,2.14-3.82,1.77-6.18-.17-1.05,1.05-.6,1.62-.6,12.95.02,24.38,3.99,33.58,13.34,7.97,8.1,12.06,18.03,12.16,29.32.07,8.36-2.59,16.12-6.82,23.37-3.84,6.59-8.72,12.34-14.57,17.08-4.36,3.53-8.6,7.25-13.64,10.06-2.62,1.46-5.11,3.83-7.84,5.21-4.23,2.14-7.75,5.4-12.28,7.09-2.64.98-4.75,3.28-7.31,4.56-4.54,2.28-8.69,5.19-13.11,7.65-4.67,2.59-8.64,6.43-13.2,9.28-3.61,2.26-5.99,5.81-9.52,8.14-1.43.94-2.13.89-3.24-.28-4.3-4.54-8.78-8.89-14.15-12.2-6.72-4.15-13.1-8.82-20.06-12.6-6.56-3.56-13.08-7.25-19.44-11.15-8.72-5.35-17.44-10.77-24.55-18.26-5.47-5.77-10.84-11.69-14.27-18.99-5.4-11.5-6.09-23.17-1.18-35.08,3.16-7.66,8.29-13.44,15.1-18.18,8.35-5.8,17.54-8.34,27.46-8.32,9.15.01,17.45,3.23,24.9,8.41,5.71,3.97,9.56,9.34,10.01,16.72Z"/>
          <path class="cls-2" d="M210.49,329.81c.22,4.86-.24,10.27-1.09,15.64-.15.94-.56,1.83-.83,2.75-.3,1.04-.88,1.81-2.06,1.48-1.18-.32-1.58-1.22-1.38-2.44.51-3.01,1.06-6,1.17-9.09.48-13.24-1.59-26.01-7.37-37.96-5.64-11.64-14.54-19.38-27.64-21.93-3.44-.67-7.26-.2-10.27-2.96-2.15-1.98-3.01-4.16-1.56-6.75,1.99-3.56,5.29-5.26,9.17-5.7,8.04-.91,14.75,2.21,20.44,7.58,9.26,8.73,15.17,19.45,18.33,31.76,2.28,8.88,3.29,17.88,3.08,27.62Z"/>
          <path class="cls-2" d="M215.76,337.87c-.39-8.81-.52-17.55-1.24-26.23-.93-11.29-.57-22.75-4.15-33.73-1.23-3.75-2.02-7.55-1.04-11.55,1.22-5.01,5.94-6.56,9.74-3.08,3.09,2.82,3.74,6.72,3.97,10.53.49,8.23-.42,16.38-1.97,24.5-1.15,6.04-1.72,12.21-2.43,18.33-.76,6.5-1.38,13.02-2.08,19.53-.06.57,0,1.24-.79,1.7Z"/>
          <path class="cls-2" d="M174.5,377.82c27.94,4.15,55.9,3.53,83.88.2-27.99,7.08-55.95,7.36-83.88-.2Z"/>
          <path class="cls-2" d="M233.93,317.57c.58-3.72,2.6-6.74,5.3-9.22,3.08-2.83,6.79-4.53,10.99-5.17,2.95-.45,5.55.3,7.96,1.87,2.07,1.35,2.88,3.92,1.84,5.95-1.11,2.17-2.99,1.95-4.97,1.45-2.03-.51-4.08-.95-6.14-1.3-6.28-1.05-11.45.52-14.99,6.42Z"/>
          <path class="cls-2" d="M246.35,351.26c-2.14,2.06-5.04,2.29-7.68,2.87-9.28,2.04-18.7,2.69-28.18,2.09-7.42-.47-14.78-1.31-21.81-3.93-.8-.3-.78-.34-1.99-1.78,5.6,2.01,11,2.83,16.45,3.37,9.08.9,18.14,1,27.24-.06,5.31-.62,10.53-1.45,15.68-2.84.1.1.19.19.29.29Z"/>
          <path class="cls-2" d="M211.05,391.61c-2.89,0-5.74-.8-8.65-.37-.08.08-.17.14-.26.19.09-.05.18-.11.26-.19-3.17-.34-6.34-.67-9.52-1.01l-.07.41c1.96.65,3.92,1.3,5.87,1.96,14.2,2.8,28.22,2.55,41.99-2.17-9.86.79-19.74,1.21-29.64,1.19Z"/>
          <path class="cls-2" d="M287.2,345.99c-4.23-2.15-8.76-3.39-13.4-4.35-6.95-1.43-14.04-1.75-21.05-2.74-2.85-.4-5.81-.39-8.7.26,2.58.7,5.28.89,7.85,1.03,7.63.44,15.1,1.71,22.49,3.47,3.81.91,7.6,2.13,10.79,4.55,2.64,2.01,2.92,5,.81,7.57-1.35,1.64-3.15,2.76-5,3.77-8.3,4.53-17.44,6.08-26.63,7.33-5.44.74-10.93,1.16-16.39,1.73h0c-2.53.18-5.06.35-7.59.55-.27.02-.28.19-.02.26.08.02.17.03.26.04,5.84,0,11.67,0,17.51,0-5.84,0-11.67,0-17.51,0,.4.13.8.36,1.21.37,14.51.59,28.81-.68,42.69-5.21,5.06-1.65,9.99-3.6,14.19-7.05,4.57-3.76,3.69-8.95-1.51-11.59Z"/>
          <path class="cls-2" d="M266.16,347.79c-8.73-2.75-17.7-3.92-26.83-3.99-2.92-.18-5.82-.93-8.76-.19,2.1-.08,4.14.41,6.19.7,3.36.4,6.61,1.39,10,1.75,5.45.58,10.96,1.1,16.14,3.12,1.21.47,2.71,1.03,2.78,2.49.07,1.44-1.3,2.11-2.51,2.68-5.12,2.42-10.64,3.32-16.16,4.11-6.06.86-12.15,1.49-18.23,2.22.59.57,1.17.72,1.75.75,12.15.54,24.05-.74,35.56-4.89,2.35-.85,5.19-1.75,5.13-4.46-.05-2.49-2.75-3.55-5.07-4.28Z"/>
          <path class="cls-2" d="M257.97,284.34c-5.47-1.94-10.7-1.43-15.79,1.42-6.18,3.46-10.33,8.76-13.63,14.8-2.08,3.8-3.05,8.02-4.31,12.15-1.76,5.74-2.5,11.54-2.66,17.48,0,2.74,0,5.48,0,8.23-.23,3.52.24,6.95,1.46,10.27.37,1.01.96,1.62,2.2,1.09,1.07-.46,1.65-.8,1.31-2.28-1.48-6.54-1.74-13.16-.79-19.83,1.22-8.57,3.54-16.74,8.88-23.72,2.89-3.78,6.13-7.01,11.24-8.02,3.6-.71,7.16-.17,10.71-.59,3.38-.4,5.74-2.14,6.17-4.73.34-2.01-2.14-5.34-4.79-6.28Z"/>
          <path class="cls-2" d="M201.46,360.66c-.47-.43-.98-.51-1.56-.23-.12-.09-.26-.13-.41-.14-.19-.14-.38-.4-.58-.41-6.29-.41-12.51-1.3-18.7-2.45-3.86-.72-7.69-1.61-11.25-3.33-.9-.44-1.94-1.02-1.88-2.3.05-1,.85-1.4,1.66-1.83,3.21-1.7,6.73-2.37,10.24-2.93,6.03-.96,12.12-1.54,18.13-2.59,1.93-.34,3.94-.5,6.25-.72-.85-.83-1.4-.75-1.9-.72-10.02.7-20.09,1.05-29.95,3.18-2.68.58-5.47,1.15-7.84,2.75-3,2.02-2.99,4.38.12,6.28,2.7,1.65,5.7,2.54,8.76,3.33,4.66,1.2,9.4,1.86,14.15,2.44,5.73.7,11.45.71,17.18.06-.71-.74-1.63-.19-2.43-.39"/>
          <path class="cls-2" d="M200.13,368.63c-12.76-.62-25.45-1.72-37.85-4.93-5.15-1.33-10.14-3.25-14.16-6.92-4.07-3.71-3.32-7.62,1.69-9.96,8.1-3.79,16.83-4.92,25.55-6.16,2.73-.39,5.61.42,8.19-1.06-.25-.06-.5-.11-.75-.17.06-.08.14-.24.19-.24,1.25.12,2.57-.4,3.76.34,1.11,0,2.23,0,3.81,0-1.11-1.1-1.83-.77-2.49-.8-3.77-.14-7.5.45-11.25.75-9.23.74-18.44,1.63-27.28,4.58-3.88,1.3-7.76,3.33-8.28,7.85-.43,3.74,2.85,5.84,5.65,7.54,9.19,5.6,19.55,7.71,29.99,9.32,5.08.79,10.28.93,15.38,1.52,10.71,1.24,21.32.29,31.97-.29.9-.05,1.9-.07,2.86-.93-9.14-.26-18.06-.02-26.97-.45Z"/>
        </g>
        <g>
          <path class="cls-1" d="M142.19,180.59c1.66-1.76,2.36-2.6,5.55-4.22.87-.44,1-1.08.82-1.95-1.19-5.82.02-11.28,2.73-16.43,1.06-2.02,2.38-3.97,3.92-5.64,1.49-1.62.67-2.41-.57-3.32-6.85-5.07-11.05-11.82-12.68-20.16-.18-.92-.12-1.94.04-2.87.36-2.14,1.54-3.4,3.9-3.3.82.04,1.95.41,2.34-.63.33-.88-.48-1.55-1.02-2.24-3.65-4.66-5.98-9.97-7.25-15.7-1.18-5.32-1.56-10.73-.28-16.11.48-2.03,1.48-3.79,3.73-4.27,2.52-.54,4.16.73,5.31,2.87,2.19,4.09,5.21,7.57,8.57,10.69,1.68,1.56,3.82,2.64,5.8,3.87,6.87,4.27,14.51,6.55,22.16,9.01,10.38,3.35,19.94,8.4,26.73,17.46,7.07,9.44,9.29,19.98,7.18,31.5-.05.25-.25.48-.28.73-.15,1-.51,2.24-1.53,2.12-1.13-.14-1.24-1.47-1.33-2.56-.32-3.92-.51-7.87-1.09-11.76-.71-4.83-2.47-9.28-5.1-13.47-6.23-9.91-15.69-15.14-26.32-18.81-6.21-2.15-12.66-3.77-18.46-6.92-6.42-3.49-12.81-7.16-16.52-13.96-.72-1.32-1.89-2.4-3.12-3.92-2.3,8.26,0,15.22,3.51,22.01,2.97,5.75,7.65,10.1,12.06,14.62,1.69,1.73,4.02,2.88,5.81,4.91-1.92.86-3.57.27-5.16-.25-3.61-1.18-7.16-2.58-10.79-3.68-2.51-.76-3.33.2-2.7,2.84,1.63,6.82,5.81,12,10.68,16.76,1.05,1.03,1.56-.06,2.14-.43,6.74-4.27,14.08-6.07,21.93-4.73,5.06.87,9.94,2.57,14.41,5.23,3.21,1.92,5.33,5.03,8.04,7.49,4.87,4.43,7.63,10.1,9.92,16.16.97,2.55,2.23.04,2.85-.65,2.81-3.12,5.29-6.53,8.16-9.58,3.6-3.83,7.16-7.79,11.27-11.02,5.14-4.04,9.86-8.59,15.18-12.42,4.96-3.57,9.54-7.69,14.61-11.1,6.95-4.66,13.7-9.61,20.75-14.13,5.7-3.66,11.22-7.66,16.48-11.93,5.25-4.27,9.78-9.35,14.62-14.08,3.67-3.59,6.86-7.56,10.11-11.5,1.74-2.11,7.35-.79,8.5,1.94,1.73,4.07,1.89,8.4,1.32,12.63-.79,5.93-2.1,11.83-5.07,17.1-1.93,3.41-3.38,7.11-6.24,10.62,1.35-.35,2.21-.56,3.05-.8,4.09-1.15,7.39,1.24,7.88,5.52.68,6.03-1.01,11.39-4.41,16.48-3.25,4.87-6.78,9.45-11.41,13.74,2.2.43,3.98.79,4.86,2.66,1,2.13.7,4.28.24,6.42-.74,3.45-3.1,6-4.97,8.85-3.71,5.67-9.17,9.17-14.85,12.4-1.21.69-.97,1.16-.42,2.11,2.43,4.19,1.66,7.76-1.91,11.12-3.96,3.73-7.91,7.41-13.22,9.18-1.16.39-2.29.74-3.52.93-1.57.24-3.54.25-2.94,3.05.26,1.22-.76,2.53-1.92,3.41-3.84,2.9-7.77,5.54-12.75,6.11-2.05.23-2.31,1.09-.85,2.68,2.56,2.78,5.59,4.56,9.32,5.73,7.6,2.4,15.37,3.6,23.21,4.55,1.3.16,2.78.43,3.91-.02,2.8-1.12,5.03.2,7.4,1.14,1.14.45,1.51,1.48,1.55,2.49.12,2.77-.44,5.34-2.64,7.33-1.42,1.28-2.65,2.79-4.14,3.98-1.69,1.35-4.28.64-5.82,1.75-1.61,1.16-.01,3.74-1.03,5.61-3.16,5.77-10.92,9.19-18.11,7.67-1.54-.32-2.13-.31-2.69,1.47-1.65,5.24-7.6,7.8-13.82,6.45-6.23-1.35-11.07-5.02-15.62-9.16-3.2-2.91-5.54-6.7-8.69-9.55-2.86-2.58-5.77-5.64-10.56-5.36-9.05.53-18.02-.9-26.53-3.78-13.14-4.46-24.39-11.92-32.05-23.87-3.11-4.85-5.44-10.15-7.85-15.39-2.78-6.05-7.05-10.46-13.75-12.29-3.95-1.08-7.53-.73-11.02,1.34-1.01.6-2.05,1.45-3.32.35-1.21-1.04-.75-2.11-.3-3.29.51-1.35.66-2.88,1.34-4.12.56-1,1.79-2.75,2.69-3.7ZM140.33,182.02c-.49.51-.63.31-2.07.05-3.18-.57-6.34-1.24-9.5-1.9-.9-.19-2.31-.21-2.08-1.43.26-1.35,1.48-.64,2.4-.43,3.83.85,6.73,1.4,11.49,2.52.62.15-.04.97-.24,1.19ZM243.44,241.19c-3.02,2.85-2.94,2.73.52,5.23,4.74,3.42,9.03,7.43,13.17,11.53,3.07,3.05,6.64,5.13,10.55,6.64,2.04.79,4.31.78,6.35-.41,2.5-1.47,2.74-3.78.67-5.76-1.26-1.21-2.49-2.45-3.69-3.71-.31-.32-1.12-.58-.58-1.19.29-.32.96-.48,1.41-.41.85.13,1.68.45,2.5.74,4.63,1.63,9.29,3.08,14.31,2.53,2.67-.29,5.17-.92,7-3.04,1.6-1.86,1.22-3.35-1.04-4.16-1.22-.44-2.5-.74-3.75-1.1-1.19-.34-2.31-.81-3.18-1.72-.28-.29-.68-.6-.51-1.11.18-.56.68-.48,1.09-.46,4.22.21,8.36-.74,12.53-.95,4.21-.22,6.7-3.09,9.87-4.92.84-.49,1.27-1.62.99-2.49-.28-.86-1.4-.49-2.12-.47-6.66.11-13.27-.15-19.83-1.54-9.72-2.06-18.86-5.17-25.7-12.91-.41-.46-.8-.86-1.53-.82-2.16.12-4.29-.28-6.44-.49-5.2-.52-9.35-3.18-14.08-6.1,1.35-.24,2.12-.56,2.83-.46,3.27.49,6.53,1.11,9.8,1.68,6.93,1.2,13.52-.3,20.11-2.3,2.19-.67,3.8-1.76,5.2-3.48-1.69-1.34-3.56-1.85-5.35-2.46-3.13-1.06-6.02-2.6-8.95-4.06-.59-.29-1.4-.69-1.02-1.57.32-.75,1.09-.23,1.64-.32.33-.05.7.04,1.04.12,11.89,2.49,23.06,1.1,33.11-6.2,1.54-1.12,2.61-2.79,2.48-4.64-.12-1.81-2.17-2.27-3.49-2.72-1.73-.59-3.71-.45-5.59-.56-3.26-.19-6.52-.4-9.71-1.19-.59-.15-1.29-.3-1.22-1.1.07-.73.78-.52,1.25-.61,1.88-.34,3.76-.66,5.64-1.01,5.39-.98,10.68-2.43,15.59-4.79,2.7-1.3,5.13-3.33,7.64-5.09,3.99-2.82,6.78-6.41,8.98-10.62.6-1.14.94-2.41.19-3.45-.76-1.07-2.13-1.07-3.36-.82-2.21.45-4.4,1.06-6.62,1.48-3.79.7-7.59,1.27-11.44.34-.62-.15-1.39-.27-1.42-.92-.04-.77.82-.69,1.39-.89,7.42-2.6,14.47-5.87,20.19-11.43,5.74-5.58,10.57-11.77,12.37-19.83.83-3.73-.44-5.01-4.07-4-3.17.88-6.14,2.29-9.05,3.81-2.37,1.24-4.75,2.49-7.39,3.07-.92.2-2.05.47-2.57-.6-.49-1,.7-1.26,1.2-1.75,6.6-6.52,12.91-13.23,17-21.74,2.99-6.22,5.11-12.56,4.62-19.58-.09-1.36-.34-2.58-1.06-3.71-.62-.97-1.05-1.05-1.88-.02-2.36,2.95-4.8,5.86-7.37,8.63-5.05,5.44-11.19,9.67-16.61,14.67-4.58,4.22-9.88,7.33-14.71,11.13-4.18,3.29-8.84,5.96-13.24,8.98-8.77,6.04-17.46,12.18-25.81,18.82-4.78,3.8-9.29,7.84-13.63,12.08-7.52,7.35-14.9,14.85-22.33,22.3-2.03,2.03-4.25,3.73-6.96,4.78-.82.32-1.51.56-2.06-.29-.56-.86,0-1.45.56-2.05,1.68-1.78,3.35-3.58,5-5.39.5-.55,1.02-1,.37-1.97-1.63-2.44-2.9-5.12-4.6-7.51-2.34-3.28-4.8-6.43-7.7-9.31-2.9-2.88-6.04-5.4-9.6-7.04-5.25-2.41-10.97-3.45-16.82-2.38-6.94,1.27-13.26,3.52-17.5,9.84-3.58,5.34-5.24,10.93-4.08,17.32.29,1.57-.11,2.82-1.75,3.82-2.1,1.28-3.87,3.07-4.89,5.83,6.63-.99,11.81,2.01,16.82,5.24,2.11,1.36,3.32,3.73,4.94,5.62,2.77,3.25,4.96,6.79,6.49,10.64,2.13,5.35,5.37,9.73,9.34,13.86,12.54,13.07,28.02,19.37,45.78,20.93,4.62.41,9.19.64,13.83.02Z"/>
          <path class="cls-1" d="M109.22,203.3c-1.13-.09-2.48.19-1.61-1.96,1.49-3.66,3.04-7.2,5.99-9.99,1.44-1.36,2.67-2.96,3.96-4.47,3.57-4.18,8.32-4.8,13.34-4.25,1.26.14,1.96,1.86,1.43,2.82-1.35,2.41-1.96,5.37-4.64,6.92-1.1.64-1.13,2.04-1.96,2.97-3.47,3.92-7.9,5.86-12.91,6.85-1.2.24-2.13,1.45-3.6,1.1ZM130.49,183.69c-5.28,1.33-8.75,5.19-12.33,8.9-.31.32-.29.56.05.82.4.3.64-.02.85-.25,3.37-3.69,7.62-6.28,11.44-9.47Z"/>
          <path class="cls-1" d="M126.21,168.31c.55,1.51,1.68,2.64,2.58,3.92.51.72,1.16,1.75.69,2.31-.66.78-1.52-.19-2.26-.54-3.72-1.75-5.72-5.01-7.18-8.58-1.36-3.31-2.22-6.78-1.89-10.44.21-2.34.8-2.69,3-1.8,2.05.84,3.28,2.71,4.92,4.01,5.86,4.67,9.31,10.72,7.74,18.71-2.91-2.24-4.66-5.42-6.8-8.27.07-.86-.72-.77-1.16-1.06-.43.7-.28,1.27.37,1.74Z"/>
          <path class="cls-1" d="M119.7,177.03c-2.73-.74-5.45-1.57-8.21-2.18-1.15-.25-2.41-.04-3.67.2,2.93,1.72,6.96.41,9.66,3.62-8.74,1.49-16.81,1.7-23.25-5.4-1.15-1.27-1.11-2.18.4-2.79,3.96-1.6,8.29-2.55,12.26-1.18,4.72,1.63,9.76,3.16,13.12,7.4-.1.11-.2.22-.3.34Z"/>
          <path class="cls-1" d="M151.9,194.29c1.65.26,2.54,1.03,3.28,1.97,3.02,3.88,5.35,8.14,6.64,12.9.22.82.84,2.15-.47,2.45-1.26.29-1-1.1-1.22-1.87-1.29-4.4-3.43-8.37-6.18-12.02-.72-.96-1.58-1.84-2.05-3.45Z"/>
          <path class="cls-1" d="M172.5,169.94c.05,2.52-1.68,4.4-4.1,4.44-2.24.04-4.22-1.79-4.35-4.02-.13-2.17,2.03-4.51,4.19-4.54,2.2-.03,4.22,1.91,4.27,4.12Z"/>
        </g>
      </g>
      <g>
        <path class="cls-3" d="M103.53,478.53l-.17.19c-2.82-.08-4.51-.11-5.1-.11-2.33,0-4.5.04-6.5.11l-.17-.19v-1.2l.19-.21,1.65-.1c.7-.04,1.05-.29,1.05-.74,0-.27-.18-.86-.53-1.79l-1.54-4.01c-1.75-.03-3.54-.04-5.36-.04-.99,0-2.46.01-4.41.04l-.84,2.32c-.63,1.76-.95,2.87-.95,3.31,0,.48.3.77.89.86.33.05.98.1,1.94.15l.19.19v1.22l-.19.19c-2.35-.08-3.85-.11-4.53-.11-.52,0-1.81.04-3.86.11l-.19-.17v-1.24l.21-.19c1.31-.08,2.11-.34,2.41-.78.3-.44,1.42-3.09,3.36-7.93l4.96-12.42c.37-.96.93-2.42,1.67-4.36h2.7l10.08,23.72c.39.9.75,1.41,1.07,1.52.42.15,1.02.23,1.81.23l.17.21v1.22ZM91.47,468.29l-4.07-9.97-3.9,9.97c1.04.04,2.39.06,4.05.06s2.92-.02,3.92-.06Z"/>
        <path class="cls-3" d="M126.22,469.81c0,2.09-.6,3.94-1.79,5.54-1.04,1.41-2.4,2.45-4.09,3.14-1.55.63-3.39.95-5.54.95-2.66,0-5.28-.61-7.84-1.83l-.23-.42c.35-1.46.53-3.53.53-6.22l.19-.19h1.22l.17.19v.44c0,.71.08,1.65.23,2.82.46.81,1.27,1.51,2.45,2.09,1.23.61,2.51.91,3.84.91,2.51,0,4.25-.88,5.21-2.62.49-.9.74-1.83.74-2.8,0-1.62-.68-2.78-2.04-3.48-.67-.34-1.76-.63-3.25-.86-3.39-.52-5.61-1.17-6.68-1.96-1.61-1.19-2.42-3.04-2.42-5.53s.88-4.67,2.62-6.22c1.85-1.62,4.42-2.43,7.72-2.43,2.97,0,5.36.48,7.19,1.43l.13.46c-.3,1.51-.49,3.32-.55,5.44l-.21.19h-1.2l-.19-.19c-.04-1.52-.1-2.51-.19-2.97-.39-.6-1.08-1.1-2.05-1.52-1.04-.43-2.12-.65-3.25-.65-1.7,0-3.04.45-4.03,1.35-.93.85-1.39,1.95-1.39,3.29,0,1.46.53,2.53,1.58,3.21.68.44,2.3.87,4.85,1.27.27.04,1.01.16,2.23.38.75.13,1.44.31,2.07.55,1.28.48,2.24,1.22,2.89,2.21.7,1.08,1.05,2.42,1.05,4.03Z"/>
        <path class="cls-3" d="M150.02,469.81c0,2.09-.6,3.94-1.79,5.54-1.04,1.41-2.4,2.45-4.09,3.14-1.55.63-3.39.95-5.54.95-2.66,0-5.28-.61-7.84-1.83l-.23-.42c.35-1.46.53-3.53.53-6.22l.19-.19h1.22l.17.19v.44c0,.71.08,1.65.23,2.82.46.81,1.27,1.51,2.45,2.09,1.23.61,2.51.91,3.84.91,2.51,0,4.25-.88,5.21-2.62.49-.9.74-1.83.74-2.8,0-1.62-.68-2.78-2.04-3.48-.67-.34-1.76-.63-3.25-.86-3.39-.52-5.61-1.17-6.68-1.96-1.61-1.19-2.42-3.04-2.42-5.53s.88-4.67,2.62-6.22c1.85-1.62,4.42-2.43,7.72-2.43,2.97,0,5.36.48,7.19,1.43l.13.46c-.3,1.51-.49,3.32-.55,5.44l-.21.19h-1.2l-.19-.19c-.04-1.52-.1-2.51-.19-2.97-.39-.6-1.08-1.1-2.05-1.52-1.04-.43-2.12-.65-3.25-.65-1.7,0-3.04.45-4.03,1.35-.93.85-1.39,1.95-1.39,3.29,0,1.46.53,2.53,1.58,3.21.68.44,2.3.87,4.85,1.27.27.04,1.01.16,2.23.38.75.13,1.44.31,2.07.55,1.28.48,2.24,1.22,2.89,2.21.7,1.08,1.05,2.42,1.05,4.03Z"/>
        <path class="cls-3" d="M182.71,464.55c0,4.68-1.36,8.35-4.09,11.01-2.65,2.59-6.27,3.88-10.86,3.88-4.34,0-7.74-1.22-10.21-3.66-2.47-2.44-3.71-5.84-3.71-10.19,0-6.1,2.33-10.32,6.98-12.67,2.12-1.06,4.72-1.6,7.82-1.6,4.42,0,7.87,1.16,10.33,3.48,2.5,2.36,3.75,5.6,3.75,9.74ZM176.85,465.54c0-3.68-.74-6.6-2.22-8.76-1.48-2.16-3.64-3.24-6.5-3.24-3.77,0-6.26,1.69-7.49,5.08-.63,1.74-.95,3.68-.95,5.84,0,3.92.72,7.01,2.17,9.28,1.5,2.35,3.73,3.52,6.71,3.52,3.61,0,6.04-1.78,7.28-5.34.66-1.89.99-4.01.99-6.37Z"/>
        <path class="cls-3" d="M211.41,475.27l-.88,1.94c-2.68,1.47-5.67,2.21-8.98,2.21-6.62,0-11.15-2.38-13.58-7.15-1.13-2.21-1.69-4.6-1.69-7.17,0-4.16,1.38-7.47,4.15-9.95,2.83-2.55,6.69-3.82,11.58-3.82,3.11,0,6.14.56,9.11,1.69l.25.29c-.43,1.75-.7,3.8-.8,6.14l-.17.19h-1.12l-.19-.21c-.04-1.53-.11-2.6-.21-3.2-1.58-1.79-3.87-2.68-6.87-2.68s-5.5.98-7.25,2.93c-1.75,1.95-2.62,4.6-2.62,7.95,0,4.53,1.56,8,4.68,10.42,1.66,1.29,3.89,1.94,6.68,1.94,2.54,0,5.01-.65,7.44-1.96l.48.44Z"/>
        <path class="cls-3" d="M226.25,478.53l-.17.19c-1.27-.08-3.23-.11-5.88-.11s-4.59.04-5.86.11l-.17-.19v-1.27l.19-.19c1.29-.08,2.04-.14,2.23-.19.37-.1.58-.34.65-.7.17-.91.25-2.88.25-5.9v-10.06c0-3.02-.08-4.98-.25-5.9-.06-.37-.28-.6-.65-.7-.19-.05-.93-.11-2.23-.19l-.19-.19v-1.29l.19-.17c1.22.08,3.17.11,5.86.11s4.62-.04,5.84-.11l.19.17v1.29l-.19.19c-1.29.08-2.04.14-2.23.19-.37.1-.58.34-.65.7-.17.91-.25,2.88-.25,5.9v10.06c0,3.02.08,4.98.25,5.9.06.37.28.6.65.7.19.05.93.11,2.23.19l.19.19v1.27Z"/>
        <path class="cls-3" d="M257.15,478.53l-.17.19c-2.82-.08-4.51-.11-5.1-.11-2.33,0-4.5.04-6.5.11l-.17-.19v-1.2l.19-.21,1.65-.1c.7-.04,1.05-.29,1.05-.74,0-.27-.18-.86-.53-1.79l-1.54-4.01c-1.75-.03-3.54-.04-5.36-.04-.99,0-2.46.01-4.41.04l-.84,2.32c-.63,1.76-.95,2.87-.95,3.31,0,.48.3.77.89.86.33.05.98.1,1.94.15l.19.19v1.22l-.19.19c-2.35-.08-3.85-.11-4.53-.11-.52,0-1.81.04-3.86.11l-.19-.17v-1.24l.21-.19c1.31-.08,2.11-.34,2.41-.78.3-.44,1.42-3.09,3.36-7.93l4.96-12.42c.37-.96.93-2.42,1.67-4.36h2.7l10.08,23.72c.39.9.75,1.41,1.07,1.52.42.15,1.02.23,1.81.23l.17.21v1.22ZM245.09,468.29l-4.07-9.97-3.9,9.97c1.04.04,2.39.06,4.05.06s2.92-.02,3.92-.06Z"/>
        <path class="cls-3" d="M285,475.27l-.88,1.94c-2.68,1.47-5.67,2.21-8.98,2.21h-.44l-.88,1.81c.42-.06.86-.1,1.31-.1,1.01,0,1.86.22,2.53.65.79.49,1.18,1.22,1.18,2.19,0,1.23-.63,2.16-1.88,2.78-.99.49-2.16.74-3.52.74-1.24,0-2.43-.21-3.56-.63l-.1-.3.42-.97.29-.1c.85.28,1.67.42,2.45.42.51,0,.95-.15,1.32-.46.37-.3.56-.71.56-1.22,0-.46-.16-.84-.47-1.14-.31-.3-.71-.46-1.21-.46-.29,0-.64.06-1.05.19l-.46-.34,1.41-3.14c-5.49-.46-9.33-2.82-11.51-7.08-1.13-2.21-1.69-4.6-1.69-7.17,0-4.16,1.38-7.47,4.15-9.95,2.83-2.55,6.69-3.82,11.58-3.82,3.11,0,6.14.56,9.11,1.69l.25.29c-.43,1.75-.7,3.8-.8,6.14l-.17.19h-1.12l-.19-.21c-.04-1.53-.11-2.6-.21-3.2-1.58-1.79-3.87-2.68-6.87-2.68s-5.5.98-7.25,2.93c-1.75,1.95-2.62,4.6-2.62,7.95,0,4.53,1.56,8,4.68,10.42,1.66,1.29,3.89,1.94,6.68,1.94,2.54,0,5.01-.65,7.44-1.96l.48.44Z"/>
        <path class="cls-3" d="M315.58,478.53l-.17.19c-2.82-.08-4.51-.11-5.1-.11-2.33,0-4.5.04-6.5.11l-.17-.19v-1.2l.19-.21,1.65-.1c.7-.04,1.05-.29,1.05-.74,0-.27-.18-.86-.53-1.79l-1.54-4.01c-1.75-.03-3.54-.04-5.36-.04-.99,0-2.46.01-4.41.04l-.84,2.32c-.63,1.76-.95,2.87-.95,3.31,0,.48.3.77.89.86.33.05.98.1,1.94.15l.19.19v1.22l-.19.19c-2.35-.08-3.85-.11-4.53-.11-.52,0-1.81.04-3.86.11l-.19-.17v-1.24l.21-.19c1.31-.08,2.11-.34,2.41-.78.3-.44,1.42-3.09,3.36-7.93l4.96-12.42c.37-.96.93-2.42,1.67-4.36h2.7l10.08,23.72c.39.9.75,1.41,1.07,1.52.42.15,1.02.23,1.81.23l.17.21v1.22ZM308.45,443.22c-.27,1.43-.81,2.62-1.64,3.58-.84.99-1.77,1.48-2.8,1.48-.7,0-1.53-.22-2.49-.67-.34-.16-.84-.39-1.5-.68-.25-.13-.69-.33-1.29-.61-.51-.23-1-.34-1.46-.34-1.01,0-1.74.72-2.17,2.17h-1.2l-.13-.19c.27-1.43.81-2.63,1.65-3.6.83-.97,1.76-1.46,2.79-1.46.7,0,1.53.22,2.49.67.34.17.84.39,1.5.68.25.13.68.33,1.29.61.51.23,1,.34,1.46.34,1.01,0,1.74-.72,2.17-2.17h1.2l.13.19ZM303.52,468.29l-4.07-9.97-3.9,9.97c1.04.04,2.39.06,4.05.06s2.92-.02,3.92-.06Z"/>
        <path class="cls-3" d="M347.17,464.55c0,4.68-1.36,8.35-4.09,11.01-2.65,2.59-6.27,3.88-10.86,3.88-4.34,0-7.74-1.22-10.21-3.66-2.47-2.44-3.71-5.84-3.71-10.19,0-6.1,2.33-10.32,6.98-12.67,2.12-1.06,4.72-1.6,7.82-1.6,4.42,0,7.87,1.16,10.33,3.48,2.5,2.36,3.75,5.6,3.75,9.74ZM341.31,465.54c0-3.68-.74-6.6-2.22-8.76-1.48-2.16-3.64-3.24-6.5-3.24-3.77,0-6.26,1.69-7.49,5.08-.63,1.74-.95,3.68-.95,5.84,0,3.92.72,7.01,2.17,9.28,1.5,2.35,3.73,3.52,6.71,3.52,3.61,0,6.04-1.78,7.28-5.34.66-1.89.99-4.01.99-6.37Z"/>
      </g>
      <g>
        <path class="cls-3" d="M28.33,497.39l-.37,3.22c-.08.72-.16,1.66-.25,2.83l-.17,2.26-.28.31h-1.64l-.28-.28c-.04-2.54-.19-4-.45-4.35-.43-.58-3.06-.88-7.89-.88-.77,0-1.99.06-3.65.17-.21,1.92-.31,5.37-.31,10.35v3.82l3.2.08c.96.02,2.74-.02,5.34-.11.51-.02.85-.16,1.02-.42.28-.45.45-1.7.51-3.73l.28-.28h1.75l.28.28c-.08,2.11-.11,4.04-.11,5.8,0,1.9.04,3.99.11,6.25l-.28.25h-1.89l-.28-.28c0-1.98-.08-3.14-.25-3.48-.32-.66-1.29-1.06-2.91-1.19-1.11-.09-2.21-.14-3.28-.14-1.3,0-2.46.03-3.48.08v6.73c0,4.47.12,7.39.37,8.76.09.55.41.9.96,1.05.13.04,1.48.13,4.04.28l.28.28v1.89l-.31.28-11.37-.17c-1.62-.02-3.86.04-6.73.17l-.28-.25v-1.92l.28-.28c1.92-.11,3.03-.21,3.31-.28.55-.15.87-.5.96-1.05.25-1.38.37-4.3.37-8.76v-14.96c0-4.47-.12-7.39-.37-8.76-.09-.55-.42-.9-.96-1.05-.28-.07-1.39-.17-3.31-.28l-.28-.28v-1.92l.28-.25c1.81.11,4.71.17,8.71.17,2.58,0,8.93-.06,19.06-.17l.28.23Z"/>
        <path class="cls-3" d="M69.01,519.39c0,5.88-1.71,10.49-5.14,13.84-3.33,3.25-7.88,4.88-13.65,4.88-5.45,0-9.73-1.53-12.84-4.6-3.11-3.07-4.66-7.33-4.66-12.8,0-7.67,2.92-12.97,8.77-15.92,2.66-1.34,5.94-2.01,9.82-2.01,5.56,0,9.89,1.46,12.98,4.38,3.14,2.96,4.71,7.04,4.71,12.24ZM61.65,520.63c0-4.62-.93-8.29-2.79-11.01s-4.58-4.08-8.16-4.08c-4.73,0-7.87,2.13-9.42,6.38-.8,2.18-1.19,4.63-1.19,7.34,0,4.92.91,8.81,2.72,11.67,1.88,2.95,4.69,4.42,8.44,4.42,4.54,0,7.59-2.24,9.16-6.72.83-2.37,1.24-5.04,1.24-8.01Z"/>
        <path class="cls-3" d="M110.46,505.17l-.26.24c-1.63.1-2.56.18-2.8.24-.46.13-.73.42-.81.88-.21,1.15-.31,3.62-.31,7.41v9.71c0,7.16.1,11.82.31,13.98l-.31.22c-1.8-.3-3.16-.52-4.09-.65-4.27-4.8-11.56-13.54-21.87-26.25v15.63c0,3.79.1,6.26.31,7.41.08.46.35.76.81.88.24.06,1.17.14,2.8.24l.24.24v1.63l-.24.21c-1.83-.1-3.54-.14-5.12-.14-1.83,0-3.67.05-5.52.14l-.24-.21v-1.63l.24-.24c1.62-.1,2.56-.17,2.8-.24.46-.13.73-.42.81-.88.21-1.15.31-3.62.31-7.41v-12.64c0-3.79-.1-6.26-.31-7.41-.08-.46-.35-.76-.81-.88-.24-.06-1.17-.14-2.8-.24l-.24-.24v-1.62l.24-.22c1.51.1,2.96.14,4.33.14,2.15,0,3.94-.05,5.35-.14,5.74,7.65,12.48,15.85,20.22,24.6v-13.98c0-3.79-.1-6.26-.31-7.41-.08-.46-.35-.76-.81-.88-.24-.06-1.17-.14-2.8-.24l-.24-.24v-1.62l.24-.22c1.78.1,3.48.14,5.09.14,2.06,0,3.9-.05,5.55-.14l.24.22v1.62Z"/>
        <path class="cls-3" d="M143.71,503.47c-.19,1.18-.3,2.4-.31,3.66l-.05,3.99-.24.24h-1.51l-.26-.22c-.08-2.04-.17-3.23-.26-3.58-.19-.64-.7-1.01-1.53-1.12-.32-.05-1.82-.07-4.49-.07h-3.2c-.03.56-.05,2.77-.05,6.64v13.58c0,3.79.1,6.26.31,7.41.08.46.35.76.81.88.24.06,1.17.14,2.8.24l.24.24v1.6l-.24.24c-1.58-.1-4.03-.14-7.36-.14s-5.87.05-7.36.14l-.22-.21v-1.63l.24-.24c1.63-.1,2.56-.17,2.8-.24.46-.13.73-.42.81-.88.21-1.15.31-3.62.31-7.41v-13.58c0-3.94-.02-6.15-.07-6.64h-3.42c-2.85,0-4.52.09-5,.26-.25.1-.43.21-.53.36-.14.26-.26.77-.36,1.53-.11.84-.18,1.71-.22,2.61l-.24.24h-1.51l-.26-.24-.05-4.09c-.02-1.15-.11-2.33-.29-3.56l.21-.24c.94.16,4.37.24,10.28.24h9.68c5.45,0,8.88-.08,10.28-.24l.24.24Z"/>
        <path class="cls-3" d="M172.53,529.07c-.35,2.33-.53,4.96-.53,7.89l-.24.24-17.38-.14c-2.9,0-4.95.05-6.14.14l-.24-.24v-.67l.12-.29c1.18-.75,1.82-1.22,1.91-1.41.14-.3.23-1.36.26-3.18l.07-5.35v-12.12c0-3.79-.1-6.26-.31-7.41-.08-.46-.35-.76-.81-.88-.24-.06-1.17-.14-2.8-.24l-.24-.24v-1.62l.24-.22c1.61.1,4.1.14,7.46.14,3,0,8.69-.05,17.09-.14l.26.19-.31,2.65c-.1.84-.17,1.56-.21,2.15l-.17,2.22-.24.26h-1.39l-.24-.24c-.02-2.17-.14-3.4-.38-3.71-.17-.22-1.03-.4-2.57-.53-1.54-.13-2.89-.19-4.05-.19-1.39,0-2.79.06-4.21.17-.18,1.67-.26,3.99-.26,6.96v4.95c1.26.08,2.28.12,3.06.12l3.13-.02c1.47-.02,2.29-.13,2.49-.36.25-.29.42-1.36.5-3.23l.24-.24h1.48l.24.24c-.06,1.78-.09,3.42-.09,4.9,0,1.61.03,3.37.09,5.28l-.24.21h-1.6l-.24-.24c0-1.83-.13-2.92-.38-3.26-.25-.34-1.03-.57-2.32-.68-.97-.08-2.01-.12-3.11-.12-1.16,0-2.25.04-3.25.12v7.29c0,2.09.04,4.11.12,6.07h3.25c4.65,0,7.51-.18,8.56-.55.18-.06.3-.15.38-.26.16-.22.31-.7.45-1.43l.57-2.96.24-.26h1.46l.26.24Z"/>
        <path class="cls-3" d="M217.75,521.5c0,4.47-1.46,8.18-4.37,11.12-1.42,1.44-3.15,2.55-5.18,3.34-2.18.86-4.72,1.26-7.62,1.21l-6.99-.12c-1.9-.03-3.47.01-4.71.12l-.2-.2v-.55l.1-.24c.98-.62,1.5-1.01,1.58-1.17.12-.24.19-1.12.22-2.63l.06-4.43v-10.03c0-3.14-.09-5.18-.26-6.13-.07-.38-.29-.63-.67-.73-.2-.05-.97-.12-2.32-.2l-.2-.2v-1.35l.2-.18c1.4.08,2.73.12,4,.12,3.07,0,5.84-.04,8.31-.12,1.23-.04,2.46-.06,3.7-.06,3.43,0,6.06.39,7.9,1.17,2,.86,3.58,2.2,4.71,4.04,1.16,1.89,1.74,4.29,1.74,7.22ZM211.68,522.45c0-3.65-.88-6.46-2.65-8.43-.92-1.03-2.08-1.75-3.46-2.18-1.32-.4-3.16-.59-5.52-.59-1.23,0-2.4.09-3.52.26-.13,1.48-.2,5.05-.2,10.73l.04,8.65c.01,1.93.07,3.21.16,3.84,1.16.18,2.35.28,3.56.28,2.62,0,4.7-.38,6.21-1.15,1.64-.83,2.94-2.24,3.9-4.24.99-2.06,1.48-4.45,1.48-7.16Z"/>
        <path class="cls-3" d="M251.52,522.43c0,4.87-1.42,8.69-4.25,11.46-2.76,2.69-6.52,4.04-11.3,4.04-4.51,0-8.05-1.27-10.63-3.81-2.57-2.54-3.86-6.07-3.86-10.6,0-6.35,2.42-10.74,7.26-13.18,2.2-1.11,4.92-1.66,8.13-1.66,4.6,0,8.19,1.21,10.75,3.62,2.6,2.45,3.9,5.83,3.9,10.13ZM245.42,523.46c0-3.83-.77-6.86-2.31-9.11-1.54-2.25-3.79-3.37-6.76-3.37-3.92,0-6.52,1.76-7.8,5.28-.66,1.81-.99,3.83-.99,6.08,0,4.08.75,7.3,2.26,9.66,1.56,2.44,3.89,3.66,6.99,3.66,3.76,0,6.29-1.85,7.58-5.56.69-1.96,1.03-4.18,1.03-6.63Z"/>
        <path class="cls-3" d="M308.61,536.94l-.25.28c-4.18-.11-6.71-.17-7.58-.17-3.47,0-6.69.06-9.67.17l-.25-.28v-1.78l.28-.31,2.46-.14c1.04-.06,1.56-.42,1.56-1.1,0-.4-.26-1.28-.79-2.66l-2.29-5.97c-2.6-.04-5.26-.06-7.97-.06-1.47,0-3.66.02-6.56.06l-1.24,3.45c-.94,2.62-1.41,4.26-1.41,4.92,0,.72.44,1.14,1.33,1.27.49.08,1.45.15,2.88.23l.28.28v1.81l-.28.28c-3.49-.11-5.73-.17-6.73-.17-.77,0-2.69.06-5.74.17l-.28-.25v-1.84l.31-.28c1.94-.11,3.13-.5,3.58-1.16.44-.66,2.11-4.59,4.99-11.79l7.38-18.46c.55-1.43,1.38-3.59,2.49-6.47h4.01l14.98,35.25c.58,1.34,1.11,2.09,1.58,2.26.62.23,1.52.34,2.69.34l.25.31v1.81ZM290.68,521.73l-6.05-14.82-5.8,14.82c1.54.06,3.55.08,6.02.08s4.33-.03,5.82-.08Z"/>
        <path class="cls-3" d="M357.23,536.96l-.24.24c-1.58-.1-4.03-.14-7.36-.14s-5.86.05-7.36.14l-.22-.21v-1.63l.24-.24c1.62-.1,2.56-.17,2.8-.24.46-.13.73-.42.81-.88.21-1.15.31-3.62.31-7.41v-16.16l-5.33,10.92c-.3.61-1.34,2.84-3.11,6.69l-4.37,9.56h-1.6c-.83-1.98-1.95-4.47-3.37-7.48l-3.35-7.1-6.26-13.03v16.59c0,3.79.1,6.26.31,7.41.08.46.35.76.81.88.24.06,1.17.14,2.8.24l.24.24v1.63l-.24.21c-1.83-.1-3.54-.14-5.12-.14-1.83,0-3.67.05-5.52.14l-.24-.21v-1.63l.24-.24c1.62-.1,2.56-.17,2.8-.24.46-.13.73-.42.81-.88.21-1.15.31-3.62.31-7.41v-12.64c0-3.79-.1-6.26-.31-7.41-.08-.46-.35-.76-.81-.88-.24-.06-1.17-.14-2.8-.24l-.24-.24v-1.62l.24-.22c1.66.1,3.75.14,6.29.14,1.94,0,3.64-.05,5.09-.14.53,1.21,1.27,2.92,2.25,5.12l1.53,3.3,7.6,15.9,3.66-7.41,5.71-12.21c.67-1.45,1.32-3.01,1.96-4.69,1.8.1,3.01.14,3.63.14,3.12,0,5.51-.05,7.17-.14l.24.22v1.65l-.24.21c-1.62.1-2.56.18-2.8.24-.46.13-.73.42-.81.88-.21,1.15-.31,3.62-.31,7.41v12.64c0,3.79.1,6.26.31,7.41.08.46.35.76.81.88.24.06,1.17.14,2.8.24l.24.24v1.6Z"/>
        <path class="cls-3" d="M397.48,519.39c0,5.88-1.71,10.49-5.14,13.84-3.33,3.25-7.88,4.88-13.65,4.88-5.45,0-9.73-1.53-12.84-4.6-3.11-3.07-4.66-7.33-4.66-12.8,0-7.67,2.92-12.97,8.77-15.92,2.66-1.34,5.94-2.01,9.82-2.01,5.56,0,9.89,1.46,12.98,4.38,3.14,2.96,4.71,7.04,4.71,12.24ZM390.12,520.63c0-4.62-.93-8.29-2.79-11.01s-4.58-4.08-8.16-4.08c-4.73,0-7.87,2.13-9.42,6.38-.8,2.18-1.19,4.63-1.19,7.34,0,4.92.91,8.81,2.72,11.67,1.88,2.95,4.69,4.42,8.44,4.42,4.54,0,7.59-2.24,9.16-6.72.83-2.37,1.24-5.04,1.24-8.01Z"/>
        <path class="cls-3" d="M433.98,536.96l-.24.24c-.11,0-.41,0-.91-.02-2.18-.08-3.55-.12-4.09-.12-.81,0-2.1.05-3.87.14-.06-.38-.37-1.02-.91-1.91l-5.93-9.9-2.65-4.04c-.33-.49-.8-.98-1.41-1.46l.26-.81c.37.02.64.02.81.02,1.56,0,2.79-.25,3.68-.74.81-.45,1.56-1.23,2.25-2.34.68-1.12,1.03-2.45,1.03-3.99,0-2.69-1-4.51-3.01-5.45-.96-.45-2.35-.67-4.18-.67-.8,0-1.56.06-2.29.19-.16,1.56-.24,4.22-.24,7.98v12.5c0,3.79.1,6.26.31,7.41.08.46.35.76.81.88.24.06,1.17.14,2.8.24l.24.24v1.6l-.21.24c-1.59-.1-4.05-.14-7.36-.14s-5.88.05-7.36.14l-.24-.21v-1.63l.24-.24c1.63-.1,2.56-.17,2.8-.24.46-.13.73-.42.81-.88.21-1.15.31-3.62.31-7.41v-12.64c0-3.79-.1-6.26-.31-7.41-.08-.46-.35-.76-.81-.88-.24-.06-1.17-.14-2.8-.24l-.24-.24v-1.62l.24-.22c1.56.1,4.02.14,7.36.14,1.94,0,3.52-.02,4.73-.07,2.41-.1,4.21-.14,5.4-.14,2.76,0,4.78.25,6.07.74,1.74.67,2.9,1.8,3.49,3.39.29.78.43,1.71.43,2.77,0,4.33-2.44,7.41-7.31,9.23.8,1.34,1.64,2.69,2.53,4.06l3.68,5.67c2.17,3.35,3.61,5.25,4.33,5.71.37.24.88.36,1.53.36l.24.24v1.53Z"/>
      </g>
      <g>
        <path class="cls-3" d="M50.01,581.23c-.27-.79-.55-1.57-.84-2.34-.29-.77-.57-1.56-.84-2.37h-8.47c-.27.81-.55,1.61-.83,2.39-.28.78-.56,1.56-.83,2.33h-3.79c.75-2.14,1.47-4.12,2.14-5.93s1.34-3.53,1.98-5.15c.65-1.62,1.29-3.17,1.92-4.63.64-1.47,1.29-2.91,1.97-4.34h3.48c.68,1.43,1.33,2.88,1.97,4.34.64,1.47,1.28,3.01,1.92,4.63.65,1.62,1.31,3.34,2,5.15.69,1.81,1.4,3.79,2.16,5.93h-3.94ZM44.09,565.05c-.44,1.02-.95,2.27-1.52,3.73-.57,1.47-1.16,3.06-1.78,4.78h6.6c-.62-1.72-1.22-3.32-1.79-4.81s-1.08-2.72-1.5-3.71Z"/>
        <path class="cls-3" d="M68.8,561.17v3.16h-6.17v16.91h-3.68v-16.91h-6.17v-3.16h16.01Z"/>
        <path class="cls-3" d="M71.58,581.23v-20.06h12.88v3.1h-9.24v4.95h8.22v3.04h-8.22v5.88h9.93v3.1h-13.58Z"/>
        <path class="cls-3" d="M102.06,581.23c-.66-1.1-1.39-2.28-2.2-3.55-.81-1.26-1.65-2.54-2.52-3.82-.87-1.28-1.75-2.53-2.65-3.73s-1.75-2.29-2.56-3.26v14.36h-3.59v-20.06h2.98c.77.81,1.6,1.77,2.49,2.88.89,1.11,1.78,2.26,2.68,3.46.9,1.2,1.77,2.4,2.61,3.6s1.59,2.33,2.24,3.37v-13.32h3.62v20.06h-3.1Z"/>
        <path class="cls-3" d="M126.99,571.19c0,1.74-.27,3.25-.81,4.53-.54,1.28-1.31,2.36-2.3,3.21-.99.86-2.19,1.5-3.59,1.91s-2.95.62-4.65.62c-.81,0-1.73-.03-2.75-.1-1.02-.07-2-.21-2.92-.42v-19.48c.93-.21,1.91-.35,2.95-.41,1.04-.06,1.97-.09,2.78-.09,1.68,0,3.21.2,4.6.59s2.58,1.01,3.58,1.85,1.76,1.9,2.3,3.18c.54,1.28.81,2.81.81,4.59ZM113.61,578.22c.21.02.49.03.84.04.35.01.82.01,1.42.01,2.45,0,4.28-.62,5.49-1.87s1.81-2.99,1.81-5.23-.59-4.02-1.77-5.24c-1.18-1.22-3-1.82-5.47-1.82-1.08,0-1.85.03-2.32.09v14.01Z"/>
        <path class="cls-3" d="M130.98,561.17h3.65v20.06h-3.65v-20.06Z"/>
        <path class="cls-3" d="M143.82,561.17c.42.73.9,1.63,1.42,2.69.52,1.06,1.05,2.18,1.59,3.34s1.08,2.35,1.61,3.56c.53,1.21,1.02,2.32,1.46,3.34.44-1.02.93-2.14,1.45-3.34.52-1.21,1.05-2.39,1.59-3.56s1.07-2.28,1.59-3.34c.52-1.06.99-1.96,1.42-2.69h3.29c.18,1.47.34,3.03.5,4.68s.3,3.34.43,5.07c.13,1.73.25,3.46.35,5.21.11,1.75.2,3.45.28,5.11h-3.59c-.08-2.33-.17-4.74-.28-7.21-.11-2.47-.27-4.86-.49-7.18-.21.44-.46.97-.75,1.59-.29.62-.6,1.29-.93,2.01s-.66,1.47-1,2.24c-.34.77-.67,1.52-.98,2.24s-.61,1.4-.88,2.03c-.27.63-.5,1.16-.69,1.61h-2.72c-.19-.44-.42-.98-.7-1.62-.27-.64-.56-1.32-.88-2.04-.32-.72-.65-1.47-.98-2.24-.34-.77-.67-1.51-1-2.23-.33-.71-.64-1.38-.93-2.01-.29-.63-.54-1.15-.75-1.58-.22,2.32-.38,4.71-.49,7.18-.11,2.47-.2,4.87-.28,7.21h-3.59c.08-1.66.17-3.38.28-5.15.11-1.78.23-3.54.35-5.28.13-1.75.27-3.44.43-5.08s.32-3.16.5-4.55h3.37Z"/>
        <path class="cls-3" d="M165.03,581.23v-20.06h12.88v3.1h-9.24v4.95h8.22v3.04h-8.22v5.88h9.93v3.1h-13.58Z"/>
        <path class="cls-3" d="M195.51,581.23c-.66-1.1-1.39-2.28-2.2-3.55-.81-1.26-1.65-2.54-2.52-3.82-.87-1.28-1.75-2.53-2.65-3.73s-1.75-2.29-2.56-3.26v14.36h-3.59v-20.06h2.98c.77.81,1.6,1.77,2.49,2.88.89,1.11,1.78,2.26,2.68,3.46.9,1.2,1.77,2.4,2.61,3.6s1.59,2.33,2.24,3.37v-13.32h3.62v20.06h-3.1Z"/>
        <path class="cls-3" d="M217.4,561.17v3.16h-6.17v16.91h-3.68v-16.91h-6.17v-3.16h16.01Z"/>
        <path class="cls-3" d="M238.13,571.19c0,1.72-.26,3.23-.77,4.54-.51,1.31-1.21,2.41-2.08,3.29-.88.88-1.91,1.54-3.08,1.98-1.18.44-2.43.67-3.76.67s-2.59-.22-3.78-.67c-1.19-.44-2.22-1.1-3.1-1.98-.88-.88-1.58-1.97-2.1-3.29-.52-1.31-.78-2.83-.78-4.54s.26-3.23.78-4.53,1.23-2.4,2.13-3.29,1.93-1.55,3.11-2c1.18-.44,2.42-.67,3.73-.67s2.56.22,3.73.67c1.18.44,2.21,1.11,3.08,2,.88.89,1.58,1.98,2.1,3.29s.78,2.81.78,4.53ZM222.47,571.19c0,1.1.13,2.1.41,3s.66,1.66,1.17,2.29c.51.63,1.13,1.12,1.87,1.46.73.35,1.56.52,2.49.52s1.73-.17,2.46-.52c.73-.35,1.36-.83,1.87-1.46.51-.63.9-1.39,1.17-2.29s.41-1.9.41-3-.13-2.1-.41-3-.66-1.66-1.17-2.29c-.51-.63-1.13-1.12-1.87-1.46-.73-.35-1.55-.52-2.46-.52s-1.76.17-2.49.52c-.73.35-1.36.84-1.87,1.48-.51.64-.9,1.4-1.17,2.29-.27.89-.41,1.88-.41,2.98Z"/>
        <path class="cls-3" d="M253.74,578.51c1.31,0,2.27-.22,2.87-.67.6-.44.9-1.07.9-1.88,0-.48-.1-.9-.3-1.24-.2-.35-.49-.66-.87-.94-.38-.28-.83-.54-1.38-.78s-1.16-.48-1.85-.71c-.7-.25-1.37-.53-2.01-.82-.65-.3-1.22-.67-1.71-1.12-.49-.44-.89-.97-1.19-1.59-.3-.62-.45-1.36-.45-2.23,0-1.81.63-3.24,1.88-4.27,1.25-1.03,2.96-1.55,5.12-1.55,1.25,0,2.37.14,3.34.42.97.28,1.74.58,2.3.91l-1.13,2.95c-.66-.37-1.38-.65-2.16-.84-.78-.19-1.59-.29-2.42-.29-.98,0-1.75.2-2.3.61-.55.41-.83.97-.83,1.71,0,.44.09.83.27,1.14s.44.6.78.85c.34.25.73.48,1.19.69.45.21.95.42,1.49.61.95.35,1.79.7,2.53,1.06s1.37.78,1.88,1.27c.51.49.9,1.07,1.17,1.74.27.67.41,1.47.41,2.42,0,1.81-.64,3.22-1.93,4.21s-3.16,1.49-5.63,1.49c-.83,0-1.59-.05-2.27-.16-.69-.11-1.29-.24-1.82-.39s-.99-.31-1.38-.48c-.39-.16-.69-.31-.93-.45l1.07-2.98c.52.29,1.23.58,2.11.87.89.29,1.96.43,3.21.43Z"/>
        <path class="cls-3" d="M283.15,571.19c0,1.72-.26,3.23-.77,4.54-.51,1.31-1.21,2.41-2.08,3.29-.88.88-1.91,1.54-3.08,1.98-1.18.44-2.43.67-3.76.67s-2.59-.22-3.78-.67c-1.19-.44-2.22-1.1-3.1-1.98-.88-.88-1.58-1.97-2.1-3.29-.52-1.31-.78-2.83-.78-4.54s.26-3.23.78-4.53,1.23-2.4,2.13-3.29,1.93-1.55,3.11-2c1.18-.44,2.42-.67,3.73-.67s2.56.22,3.73.67c1.18.44,2.21,1.11,3.08,2,.88.89,1.58,1.98,2.1,3.29s.78,2.81.78,4.53ZM267.49,571.19c0,1.1.13,2.1.41,3s.66,1.66,1.17,2.29c.51.63,1.13,1.12,1.87,1.46.73.35,1.56.52,2.49.52s1.73-.17,2.46-.52c.73-.35,1.36-.83,1.87-1.46.51-.63.9-1.39,1.17-2.29s.41-1.9.41-3-.13-2.1-.41-3-.66-1.66-1.17-2.29c-.51-.63-1.13-1.12-1.87-1.46-.73-.35-1.55-.52-2.46-.52s-1.76.17-2.49.52c-.73.35-1.36.84-1.87,1.48-.51.64-.9,1.4-1.17,2.29-.27.89-.41,1.88-.41,2.98Z"/>
        <path class="cls-3" d="M299.82,578.08v3.16h-12.68v-20.06h3.65v16.91h9.03Z"/>
        <path class="cls-3" d="M302.6,561.17h3.65v20.06h-3.65v-20.06Z"/>
        <path class="cls-3" d="M328.08,571.19c0,1.74-.27,3.25-.81,4.53-.54,1.28-1.31,2.36-2.3,3.21-.99.86-2.19,1.5-3.59,1.91s-2.95.62-4.65.62c-.81,0-1.73-.03-2.75-.1-1.02-.07-2-.21-2.92-.42v-19.48c.93-.21,1.91-.35,2.95-.41,1.04-.06,1.97-.09,2.78-.09,1.68,0,3.21.2,4.6.59s2.58,1.01,3.58,1.85,1.76,1.9,2.3,3.18c.54,1.28.81,2.81.81,4.59ZM314.71,578.22c.21.02.49.03.84.04.35.01.82.01,1.42.01,2.45,0,4.28-.62,5.49-1.87s1.81-2.99,1.81-5.23-.59-4.02-1.77-5.24c-1.18-1.22-3-1.82-5.47-1.82-1.08,0-1.85.03-2.32.09v14.01Z"/>
        <path class="cls-3" d="M344.93,581.23c-.27-.79-.55-1.57-.84-2.34-.29-.77-.57-1.56-.84-2.37h-8.47c-.27.81-.55,1.61-.83,2.39-.28.78-.56,1.56-.83,2.33h-3.79c.75-2.14,1.47-4.12,2.14-5.93s1.34-3.53,1.98-5.15c.65-1.62,1.29-3.17,1.92-4.63.64-1.47,1.29-2.91,1.97-4.34h3.48c.68,1.43,1.33,2.88,1.97,4.34.64,1.47,1.28,3.01,1.92,4.63.65,1.62,1.31,3.34,2,5.15.69,1.81,1.4,3.79,2.16,5.93h-3.94ZM339.01,565.05c-.44,1.02-.95,2.27-1.52,3.73-.57,1.47-1.16,3.06-1.78,4.78h6.6c-.62-1.72-1.22-3.32-1.79-4.81s-1.08-2.72-1.5-3.71ZM343.69,555.21l-4.72,4.57-1.74-1.56,4.25-5.07,2.2,2.05Z"/>
        <path class="cls-3" d="M356.92,560.97c2.9,0,5.11.53,6.64,1.59,1.53,1.06,2.3,2.68,2.3,4.86,0,2.72-1.34,4.56-4.02,5.53.37.44.78.98,1.24,1.62.46.64.94,1.33,1.42,2.07.48.74.95,1.51,1.39,2.29.44.78.84,1.55,1.19,2.3h-4.08c-.37-.69-.76-1.39-1.19-2.1-.42-.71-.85-1.39-1.29-2.06s-.86-1.29-1.29-1.88c-.42-.59-.82-1.12-1.19-1.58-.27.02-.5.03-.69.03h-2.32v7.58h-3.65v-19.77c.89-.19,1.83-.32,2.84-.39,1-.07,1.9-.1,2.69-.1ZM357.18,564.12c-.77,0-1.49.03-2.14.09v6.49h1.59c.89,0,1.67-.05,2.35-.14.67-.1,1.24-.27,1.69-.52.45-.25.8-.59,1.03-1.01.23-.42.35-.96.35-1.62,0-.62-.12-1.14-.35-1.56-.23-.42-.56-.76-1-1.01-.43-.25-.95-.43-1.55-.54-.6-.11-1.25-.16-1.97-.16Z"/>
        <path class="cls-3" d="M369.92,561.17h3.65v20.06h-3.65v-20.06Z"/>
        <path class="cls-3" d="M397.01,571.19c0,1.72-.26,3.23-.77,4.54-.51,1.31-1.21,2.41-2.08,3.29-.88.88-1.91,1.54-3.08,1.98-1.18.44-2.43.67-3.76.67s-2.59-.22-3.78-.67c-1.19-.44-2.22-1.1-3.1-1.98-.88-.88-1.58-1.97-2.1-3.29-.52-1.31-.78-2.83-.78-4.54s.26-3.23.78-4.53,1.23-2.4,2.13-3.29,1.93-1.55,3.11-2c1.18-.44,2.42-.67,3.73-.67s2.56.22,3.73.67c1.18.44,2.21,1.11,3.08,2,.88.89,1.58,1.98,2.1,3.29s.78,2.81.78,4.53ZM381.35,571.19c0,1.1.13,2.1.41,3s.66,1.66,1.17,2.29c.51.63,1.13,1.12,1.87,1.46.73.35,1.56.52,2.49.52s1.73-.17,2.46-.52c.73-.35,1.36-.83,1.87-1.46.51-.63.9-1.39,1.17-2.29s.41-1.9.41-3-.13-2.1-.41-3-.66-1.66-1.17-2.29c-.51-.63-1.13-1.12-1.87-1.46-.73-.35-1.55-.52-2.46-.52s-1.76.17-2.49.52c-.73.35-1.36.84-1.87,1.48-.51.64-.9,1.4-1.17,2.29-.27.89-.41,1.88-.41,2.98Z"/>
      </g>
      <g>
        <path class="cls-3" d="M139.61,55.5l-.35.39c-5.74-.16-9.21-.23-10.4-.23-4.76,0-9.19.08-13.27.23l-.35-.39v-2.45l.39-.43,3.38-.19c1.42-.08,2.13-.58,2.13-1.51,0-.54-.36-1.76-1.09-3.65l-3.14-8.19c-3.57-.05-7.22-.08-10.94-.08-2.02,0-5.02.03-9,.08l-1.71,4.74c-1.29,3.6-1.94,5.85-1.94,6.75,0,.98.61,1.57,1.82,1.75.67.1,1.99.21,3.96.31l.39.39v2.48l-.39.39c-4.79-.16-7.87-.23-9.24-.23-1.06,0-3.69.08-7.88.23l-.39-.35v-2.52l.43-.39c2.66-.16,4.3-.69,4.91-1.59.61-.91,2.89-6.3,6.85-16.18l10.13-25.34c.75-1.97,1.89-4.93,3.42-8.89h5.51l20.57,48.4c.8,1.84,1.53,2.87,2.17,3.11.85.31,2.08.46,3.69.46l.35.43v2.48ZM115,34.62l-8.31-20.34-7.96,20.34c2.12.08,4.88.12,8.27.12s5.95-.04,8-.12Z"/>
        <path class="cls-3" d="M182.88,1.2l-.5,4.42c-.1.98-.22,2.28-.35,3.88l-.23,3.1-.39.43h-2.25l-.39-.39c-.05-3.49-.26-5.48-.62-5.98-.6-.8-4.21-1.2-10.83-1.2-1.06,0-2.73.08-5.01.23-.29,2.64-.43,7.37-.43,14.21v5.24l4.39.12c1.32.03,3.76-.03,7.33-.16.7-.03,1.17-.22,1.4-.58.39-.62.62-2.33.7-5.12l.39-.39h2.41l.39.39c-.1,2.9-.16,5.55-.16,7.96,0,2.61.05,5.47.16,8.58l-.39.35h-2.6l-.39-.39c0-2.72-.12-4.31-.35-4.77-.44-.91-1.77-1.45-4-1.63-1.53-.13-3.03-.19-4.5-.19-1.79,0-3.38.04-4.77.12v9.24c0,6.13.17,10.14.5,12.03.13.75.57,1.23,1.32,1.44.18.05,2.03.18,5.55.39l.39.39v2.6l-.43.39-15.6-.23c-2.23-.03-5.3.05-9.24.23l-.39-.35v-2.64l.39-.39c2.64-.16,4.15-.28,4.54-.39.75-.21,1.19-.69,1.32-1.44.34-1.89.5-5.9.5-12.03v-20.53c0-6.13-.17-10.14-.5-12.03-.13-.75-.57-1.23-1.32-1.44-.39-.1-1.9-.23-4.54-.39l-.39-.39V1.24l.39-.35c2.48.16,6.47.23,11.95.23,3.54,0,12.26-.08,26.16-.23l.39.31Z"/>
        <path class="cls-3" d="M240.9,55.5l-.35.39c-5.74-.16-9.21-.23-10.4-.23-4.76,0-9.19.08-13.27.23l-.35-.39v-2.45l.39-.43,3.38-.19c1.42-.08,2.13-.58,2.13-1.51,0-.54-.36-1.76-1.09-3.65l-3.14-8.19c-3.57-.05-7.22-.08-10.94-.08-2.02,0-5.02.03-9,.08l-1.71,4.74c-1.29,3.6-1.94,5.85-1.94,6.75,0,.98.61,1.57,1.82,1.75.67.1,1.99.21,3.96.31l.39.39v2.48l-.39.39c-4.79-.16-7.87-.23-9.24-.23-1.06,0-3.69.08-7.88.23l-.39-.35v-2.52l.43-.39c2.66-.16,4.3-.69,4.91-1.59.61-.91,2.89-6.3,6.85-16.18l10.13-25.34c.75-1.97,1.89-4.93,3.42-8.89h5.51l20.57,48.4c.8,1.84,1.53,2.87,2.17,3.11.85.31,2.08.46,3.69.46l.35.43v2.48ZM216.3,34.62l-8.31-20.34-7.96,20.34c2.12.08,4.88.12,8.27.12s5.95-.04,8-.12Z"/>
        <path class="cls-3" d="M302.73,55.5l-.35.39c-5.74-.16-9.21-.23-10.4-.23-4.76,0-9.19.08-13.27.23l-.35-.39v-2.45l.39-.43,3.38-.19c1.42-.08,2.13-.58,2.13-1.51,0-.54-.36-1.76-1.09-3.65l-3.14-8.19c-3.57-.05-7.22-.08-10.94-.08-2.02,0-5.02.03-9,.08l-1.71,4.74c-1.29,3.6-1.94,5.85-1.94,6.75,0,.98.61,1.57,1.82,1.75.67.1,1.99.21,3.96.31l.39.39v2.48l-.39.39c-4.79-.16-7.87-.23-9.24-.23-1.06,0-3.69.08-7.88.23l-.39-.35v-2.52l.43-.39c2.66-.16,4.3-.69,4.91-1.59.61-.91,2.89-6.3,6.85-16.18l10.13-25.34c.75-1.97,1.89-4.93,3.42-8.89h5.51l20.57,48.4c.8,1.84,1.53,2.87,2.17,3.11.85.31,2.08.46,3.69.46l.35.43v2.48ZM278.12,34.62l-8.31-20.34-7.96,20.34c2.12.08,4.88.12,8.27.12s5.95-.04,8-.12Z"/>
        <path class="cls-3" d="M349.03,37.72c0,4.27-1.22,8.03-3.65,11.29-2.12,2.87-4.9,5.01-8.34,6.4-3.16,1.29-6.92,1.94-11.29,1.94-5.43,0-10.76-1.24-15.99-3.73l-.47-.85c.72-2.97,1.09-7.21,1.09-12.69l.39-.39h2.48l.35.39v.89c0,1.45.16,3.36.47,5.74.93,1.66,2.6,3.08,5.01,4.27,2.51,1.24,5.12,1.86,7.84,1.86,5.12,0,8.67-1.79,10.63-5.36,1.01-1.84,1.51-3.74,1.51-5.71,0-3.31-1.38-5.68-4.15-7.1-1.37-.7-3.58-1.28-6.64-1.75-6.91-1.06-11.45-2.39-13.62-4-3.29-2.43-4.93-6.2-4.93-11.29s1.79-9.53,5.36-12.69c3.78-3.31,9.03-4.97,15.76-4.97,6.05,0,10.94.97,14.67,2.91l.27.93c-.62,3.08-1,6.78-1.12,11.1l-.43.39h-2.45l-.39-.39c-.08-3.1-.21-5.12-.39-6.05-.8-1.22-2.2-2.25-4.19-3.1-2.12-.88-4.33-1.32-6.64-1.32-3.47,0-6.21.92-8.23,2.75-1.89,1.73-2.83,3.97-2.83,6.71,0,2.98,1.07,5.16,3.22,6.56,1.4.91,4.7,1.77,9.9,2.6.54.08,2.06.34,4.54.78,1.53.26,2.94.63,4.23,1.12,2.61.98,4.58,2.48,5.9,4.5,1.42,2.2,2.13,4.94,2.13,8.23Z"/>
      </g>
    </g>
  </g>
</svg>