<?xml version="1.0" encoding="UTF-8"?>
<svg id="Camada_2" data-name="Camada 2" xmlns="http://www.w3.org/2000/svg" viewBox="0 0 246 352.8">
  <defs>
    <style>
      .cls-1 {
        fill: #35787f;
      }

      .cls-1, .cls-2 {
        stroke-width: 0px;
      }

      .cls-2 {
        fill: #6cbdce;
      }
    </style>
  </defs>
  <g id="Camada_1-2" data-name="Camada 1">
    <g>
      <g>
        <path class="cls-1" d="M104.54,242.22c-.57-1.04-1.11-2.09-1.7-3.12-4.58-8.04-12.26-11.43-20.7-13.48-8.51-2.07-16.84-1.23-25.25,1.36-5.12,1.58-9.43,4.51-12.83,7.93-5.4,5.43-8.66,12.44-9.67,20.37-1.47,11.57,2.27,21.4,8.99,30.49,3.85,5.22,8.54,9.58,13.33,13.88,5.91,5.3,12.75,9.24,19.35,13.54,4.48,2.93,8.82,6.11,13.57,8.56,7.35,3.79,14.21,8.34,20.72,13.37,3.94,3.05,8,6.06,11.23,9.93,1.05,1.26,1.47.77,2.4-.02,4.48-3.77,8.54-8.09,13.47-11.27,4.49-2.89,8.93-5.86,13.49-8.65,7.04-4.31,13.86-9.06,20.9-13.39,4.98-3.07,9.61-6.6,14.45-9.81,4.7-3.11,8.57-7.03,12.21-11.01,10-10.94,15.85-23.59,12.67-38.92-1.13-5.46-3.23-10.75-7.06-14.79-5.99-6.3-13.29-10.7-22.06-12.15-2.92-.48-5.87-.81-8.94-1.22.57-2.1,2.14-3.82,1.77-6.18-.17-1.05,1.05-.6,1.62-.6,12.95.02,24.38,3.99,33.58,13.34,7.97,8.1,12.06,18.03,12.16,29.32.07,8.36-2.59,16.12-6.82,23.37-3.84,6.59-8.72,12.34-14.57,17.08-4.36,3.53-8.6,7.25-13.64,10.06-2.62,1.46-5.11,3.83-7.84,5.21-4.23,2.14-7.75,5.4-12.28,7.09-2.64.98-4.75,3.28-7.31,4.56-4.54,2.28-8.69,5.19-13.11,7.65-4.67,2.59-8.64,6.43-13.2,9.28-3.61,2.26-5.99,5.81-9.52,8.14-1.43.94-2.13.89-3.24-.28-4.3-4.54-8.78-8.89-14.15-12.2-6.72-4.15-13.1-8.82-20.06-12.6-6.56-3.56-13.08-7.25-19.44-11.15-8.72-5.35-17.44-10.77-24.55-18.26-5.47-5.77-10.84-11.69-14.27-18.99-5.4-11.5-6.09-23.17-1.18-35.08,3.16-7.66,8.29-13.44,15.1-18.18,8.35-5.8,17.54-8.34,27.46-8.32,9.15.01,17.45,3.23,24.9,8.41,5.71,3.97,9.56,9.34,10.01,16.72Z"/>
        <path class="cls-2" d="M117.06,255.75c.22,4.86-.24,10.27-1.09,15.64-.15.94-.56,1.83-.83,2.75-.3,1.04-.88,1.81-2.06,1.48-1.18-.32-1.58-1.22-1.38-2.44.51-3.01,1.06-6,1.17-9.09.48-13.24-1.59-26.01-7.37-37.96-5.64-11.64-14.54-19.38-27.64-21.93-3.44-.67-7.26-.2-10.27-2.96-2.15-1.98-3.01-4.16-1.56-6.75,1.99-3.56,5.29-5.26,9.17-5.7,8.04-.91,14.75,2.21,20.44,7.58,9.26,8.73,15.17,19.45,18.33,31.76,2.28,8.88,3.29,17.88,3.08,27.62Z"/>
        <path class="cls-2" d="M122.33,263.8c-.39-8.81-.52-17.55-1.24-26.23-.93-11.29-.57-22.75-4.15-33.73-1.23-3.75-2.02-7.55-1.04-11.55,1.22-5.01,5.94-6.56,9.74-3.08,3.09,2.82,3.74,6.72,3.97,10.53.49,8.23-.42,16.38-1.97,24.5-1.15,6.04-1.72,12.21-2.43,18.33-.76,6.5-1.38,13.02-2.08,19.53-.06.57,0,1.24-.79,1.7Z"/>
        <path class="cls-2" d="M81.07,303.75c27.94,4.15,55.9,3.53,83.88.2-27.99,7.08-55.95,7.36-83.88-.2Z"/>
        <path class="cls-2" d="M140.5,243.51c.58-3.72,2.6-6.74,5.3-9.22,3.08-2.83,6.79-4.53,10.99-5.17,2.95-.45,5.55.3,7.96,1.87,2.07,1.35,2.88,3.92,1.84,5.95-1.11,2.17-2.99,1.95-4.97,1.45-2.03-.51-4.08-.95-6.14-1.3-6.28-1.05-11.45.52-14.99,6.42Z"/>
        <path class="cls-2" d="M152.92,277.19c-2.14,2.06-5.04,2.29-7.68,2.87-9.28,2.04-18.7,2.69-28.18,2.09-7.42-.47-14.78-1.31-21.81-3.93-.8-.3-.78-.34-1.99-1.78,5.6,2.01,11,2.83,16.45,3.37,9.08.9,18.14,1,27.24-.06,5.31-.62,10.53-1.45,15.68-2.84.1.1.19.19.29.29Z"/>
        <path class="cls-2" d="M117.62,317.55c-2.89,0-5.74-.8-8.65-.37-.08.08-.17.14-.26.19.09-.05.18-.11.26-.19-3.17-.34-6.34-.67-9.52-1.01l-.07.41c1.96.65,3.92,1.3,5.87,1.96,14.2,2.8,28.22,2.55,41.99-2.17-9.86.79-19.74,1.21-29.64,1.19Z"/>
        <path class="cls-2" d="M193.77,271.92c-4.23-2.15-8.76-3.39-13.4-4.35-6.95-1.43-14.04-1.75-21.05-2.74-2.85-.4-5.81-.39-8.7.26,2.58.7,5.28.89,7.85,1.03,7.63.44,15.1,1.71,22.49,3.47,3.81.91,7.6,2.13,10.79,4.55,2.64,2.01,2.92,5,.81,7.57-1.35,1.64-3.15,2.76-5,3.77-8.3,4.53-17.44,6.08-26.63,7.33-5.44.74-10.93,1.16-16.39,1.73h0c-2.53.18-5.06.35-7.59.55-.27.02-.28.19-.02.26.08.02.17.03.26.04,5.84,0,11.67,0,17.51,0-5.84,0-11.67,0-17.51,0,.4.13.8.36,1.21.37,14.51.59,28.81-.68,42.69-5.21,5.06-1.65,9.99-3.6,14.19-7.05,4.57-3.76,3.69-8.95-1.51-11.59Z"/>
        <path class="cls-2" d="M172.73,273.72c-8.73-2.75-17.7-3.92-26.83-3.99-2.92-.18-5.82-.93-8.76-.19,2.1-.08,4.14.41,6.19.7,3.36.4,6.61,1.39,10,1.75,5.45.58,10.96,1.1,16.14,3.12,1.21.47,2.71,1.03,2.78,2.49.07,1.44-1.3,2.11-2.51,2.68-5.12,2.42-10.64,3.32-16.16,4.11-6.06.86-12.15,1.49-18.23,2.22.59.57,1.17.72,1.75.75,12.15.54,24.05-.74,35.56-4.89,2.35-.85,5.19-1.75,5.13-4.46-.05-2.49-2.75-3.55-5.07-4.28Z"/>
        <path class="cls-2" d="M164.54,210.27c-5.47-1.94-10.7-1.43-15.79,1.42-6.18,3.46-10.33,8.76-13.63,14.8-2.08,3.8-3.05,8.02-4.31,12.15-1.76,5.74-2.5,11.54-2.66,17.48,0,2.74,0,5.48,0,8.23-.23,3.52.24,6.95,1.46,10.27.37,1.01.96,1.62,2.2,1.09,1.07-.46,1.65-.8,1.31-2.28-1.48-6.54-1.74-13.16-.79-19.83,1.22-8.57,3.54-16.74,8.88-23.72,2.89-3.78,6.13-7.01,11.24-8.02,3.6-.71,7.16-.17,10.71-.59,3.38-.4,5.74-2.14,6.17-4.73.34-2.01-2.14-5.34-4.79-6.28Z"/>
        <path class="cls-2" d="M108.03,286.6c-.47-.43-.98-.51-1.56-.23-.12-.09-.26-.13-.41-.14-.19-.14-.38-.4-.58-.41-6.29-.41-12.51-1.3-18.7-2.45-3.86-.72-7.69-1.61-11.25-3.33-.9-.44-1.94-1.02-1.88-2.3.05-1,.85-1.4,1.66-1.83,3.21-1.7,6.73-2.37,10.24-2.93,6.03-.96,12.12-1.54,18.13-2.59,1.93-.34,3.94-.5,6.25-.72-.85-.83-1.4-.75-1.9-.72-10.02.7-20.09,1.05-29.95,3.18-2.68.58-5.47,1.15-7.84,2.75-3,2.02-2.99,4.38.12,6.28,2.7,1.65,5.7,2.54,8.76,3.33,4.66,1.2,9.4,1.86,14.15,2.44,5.73.7,11.45.71,17.18.06-.71-.74-1.63-.19-2.43-.39"/>
        <path class="cls-2" d="M106.7,294.56c-12.76-.62-25.45-1.72-37.85-4.93-5.15-1.33-10.14-3.25-14.16-6.92-4.07-3.71-3.32-7.62,1.69-9.96,8.1-3.79,16.83-4.92,25.55-6.16,2.73-.39,5.61.42,8.19-1.06-.25-.06-.5-.11-.75-.17.06-.08.14-.24.19-.24,1.25.12,2.57-.4,3.76.34,1.11,0,2.23,0,3.81,0-1.11-1.1-1.83-.77-2.49-.8-3.77-.14-7.5.45-11.25.75-9.23.74-18.44,1.63-27.28,4.58-3.88,1.3-7.76,3.33-8.28,7.85-.43,3.74,2.85,5.84,5.65,7.54,9.19,5.6,19.55,7.71,29.99,9.32,5.08.79,10.28.93,15.38,1.52,10.71,1.24,21.32.29,31.97-.29.9-.05,1.9-.07,2.86-.93-9.14-.26-18.06-.02-26.97-.45Z"/>
      </g>
      <g>
        <path class="cls-1" d="M48.76,106.52c1.66-1.76,2.36-2.6,5.55-4.22.87-.44,1-1.08.82-1.95-1.19-5.82.02-11.28,2.73-16.43,1.06-2.02,2.38-3.97,3.92-5.64,1.49-1.62.67-2.41-.57-3.32-6.85-5.07-11.05-11.82-12.68-20.16-.18-.92-.12-1.94.04-2.87.36-2.14,1.54-3.4,3.9-3.3.82.04,1.95.41,2.34-.63.33-.88-.48-1.55-1.02-2.24-3.65-4.66-5.98-9.97-7.25-15.7-1.18-5.32-1.56-10.73-.28-16.11.48-2.03,1.48-3.79,3.73-4.27,2.52-.54,4.16.73,5.31,2.87,2.19,4.09,5.21,7.57,8.57,10.69,1.68,1.56,3.82,2.64,5.8,3.87,6.87,4.27,14.51,6.55,22.16,9.01,10.38,3.35,19.94,8.4,26.73,17.46,7.07,9.44,9.29,19.98,7.18,31.5-.05.25-.25.48-.28.73-.15,1-.51,2.24-1.53,2.12-1.13-.14-1.24-1.47-1.33-2.56-.32-3.92-.51-7.87-1.09-11.76-.71-4.83-2.47-9.28-5.1-13.47-6.23-9.91-15.69-15.14-26.32-18.81-6.21-2.15-12.66-3.77-18.46-6.92-6.42-3.49-12.81-7.16-16.52-13.96-.72-1.32-1.89-2.4-3.12-3.92-2.3,8.26,0,15.22,3.51,22.01,2.97,5.75,7.65,10.1,12.06,14.62,1.69,1.73,4.02,2.88,5.81,4.91-1.92.86-3.57.27-5.16-.25-3.61-1.18-7.16-2.58-10.79-3.68-2.51-.76-3.33.2-2.7,2.84,1.63,6.82,5.81,12,10.68,16.76,1.05,1.03,1.56-.06,2.14-.43,6.74-4.27,14.08-6.07,21.93-4.73,5.06.87,9.94,2.57,14.41,5.23,3.21,1.92,5.33,5.03,8.04,7.49,4.87,4.43,7.63,10.1,9.92,16.16.97,2.55,2.23.04,2.85-.65,2.81-3.12,5.29-6.53,8.16-9.58,3.6-3.83,7.16-7.79,11.27-11.02,5.14-4.04,9.86-8.59,15.18-12.42,4.96-3.57,9.54-7.69,14.61-11.1,6.95-4.66,13.7-9.61,20.75-14.13,5.7-3.66,11.22-7.66,16.48-11.93,5.25-4.27,9.78-9.35,14.62-14.08,3.67-3.59,6.86-7.56,10.11-11.5,1.74-2.11,7.35-.79,8.5,1.94,1.73,4.07,1.89,8.4,1.32,12.63-.79,5.93-2.1,11.83-5.07,17.1-1.93,3.41-3.38,7.11-6.24,10.62,1.35-.35,2.21-.56,3.05-.8,4.09-1.15,7.39,1.24,7.88,5.52.68,6.03-1.01,11.39-4.41,16.48-3.25,4.87-6.78,9.45-11.41,13.74,2.2.43,3.98.79,4.86,2.66,1,2.13.7,4.28.24,6.42-.74,3.45-3.1,6-4.97,8.85-3.71,5.67-9.17,9.17-14.85,12.4-1.21.69-.97,1.16-.42,2.11,2.43,4.19,1.66,7.76-1.91,11.12-3.96,3.73-7.91,7.41-13.22,9.18-1.16.39-2.29.74-3.52.93-1.57.24-3.54.25-2.94,3.05.26,1.22-.76,2.53-1.92,3.41-3.84,2.9-7.77,5.54-12.75,6.11-2.05.23-2.31,1.09-.85,2.68,2.56,2.78,5.59,4.56,9.32,5.73,7.6,2.4,15.37,3.6,23.21,4.55,1.3.16,2.78.43,3.91-.02,2.8-1.12,5.03.2,7.4,1.14,1.14.45,1.51,1.48,1.55,2.49.12,2.77-.44,5.34-2.64,7.33-1.42,1.28-2.65,2.79-4.14,3.98-1.69,1.35-4.28.64-5.82,1.75-1.61,1.16-.01,3.74-1.03,5.61-3.16,5.77-10.92,9.19-18.11,7.67-1.54-.32-2.13-.31-2.69,1.47-1.65,5.24-7.6,7.8-13.82,6.45-6.23-1.35-11.07-5.02-15.62-9.16-3.2-2.91-5.54-6.7-8.69-9.55-2.86-2.58-5.77-5.64-10.56-5.36-9.05.53-18.02-.9-26.53-3.78-13.14-4.46-24.39-11.92-32.05-23.87-3.11-4.85-5.44-10.15-7.85-15.39-2.78-6.05-7.05-10.46-13.75-12.29-3.95-1.08-7.53-.73-11.02,1.34-1.01.6-2.05,1.45-3.32.35-1.21-1.04-.75-2.11-.3-3.29.51-1.35.66-2.88,1.34-4.12.56-1,1.79-2.75,2.69-3.7ZM46.9,107.95c-.49.51-.63.31-2.07.05-3.18-.57-6.34-1.24-9.5-1.9-.9-.19-2.31-.21-2.08-1.43.26-1.35,1.48-.64,2.4-.43,3.83.85,6.73,1.4,11.49,2.52.62.15-.04.97-.24,1.19ZM150.01,167.13c-3.02,2.85-2.94,2.73.52,5.23,4.74,3.42,9.03,7.43,13.17,11.53,3.07,3.05,6.64,5.13,10.55,6.64,2.04.79,4.31.78,6.35-.41,2.5-1.47,2.74-3.78.67-5.76-1.26-1.21-2.49-2.45-3.69-3.71-.31-.32-1.12-.58-.58-1.19.29-.32.96-.48,1.41-.41.85.13,1.68.45,2.5.74,4.63,1.63,9.29,3.08,14.31,2.53,2.67-.29,5.17-.92,7-3.04,1.6-1.86,1.22-3.35-1.04-4.16-1.22-.44-2.5-.74-3.75-1.1-1.19-.34-2.31-.81-3.18-1.72-.28-.29-.68-.6-.51-1.11.18-.56.68-.48,1.09-.46,4.22.21,8.36-.74,12.53-.95,4.21-.22,6.7-3.09,9.87-4.92.84-.49,1.27-1.62.99-2.49-.28-.86-1.4-.49-2.12-.47-6.66.11-13.27-.15-19.83-1.54-9.72-2.06-18.86-5.17-25.7-12.91-.41-.46-.8-.86-1.53-.82-2.16.12-4.29-.28-6.44-.49-5.2-.52-9.35-3.18-14.08-6.1,1.35-.24,2.12-.56,2.83-.46,3.27.49,6.53,1.11,9.8,1.68,6.93,1.2,13.52-.3,20.11-2.3,2.19-.67,3.8-1.76,5.2-3.48-1.69-1.34-3.56-1.85-5.35-2.46-3.13-1.06-6.02-2.6-8.95-4.06-.59-.29-1.4-.69-1.02-1.57.32-.75,1.09-.23,1.64-.32.33-.05.7.04,1.04.12,11.89,2.49,23.06,1.1,33.11-6.2,1.54-1.12,2.61-2.79,2.48-4.64-.12-1.81-2.17-2.27-3.49-2.72-1.73-.59-3.71-.45-5.59-.56-3.26-.19-6.52-.4-9.71-1.19-.59-.15-1.29-.3-1.22-1.1.07-.73.78-.52,1.25-.61,1.88-.34,3.76-.66,5.64-1.01,5.39-.98,10.68-2.43,15.59-4.79,2.7-1.3,5.13-3.33,7.64-5.09,3.99-2.82,6.78-6.41,8.98-10.62.6-1.14.94-2.41.19-3.45-.76-1.07-2.13-1.07-3.36-.82-2.21.45-4.4,1.06-6.62,1.48-3.79.7-7.59,1.27-11.44.34-.62-.15-1.39-.27-1.42-.92-.04-.77.82-.69,1.39-.89,7.42-2.6,14.47-5.87,20.19-11.43,5.74-5.58,10.57-11.77,12.37-19.83.83-3.73-.44-5.01-4.07-4-3.17.88-6.14,2.29-9.05,3.81-2.37,1.24-4.75,2.49-7.39,3.07-.92.2-2.05.47-2.57-.6-.49-1,.7-1.26,1.2-1.75,6.6-6.52,12.91-13.23,17-21.74,2.99-6.22,5.11-12.56,4.62-19.58-.09-1.36-.34-2.58-1.06-3.71-.62-.97-1.05-1.05-1.88-.02-2.36,2.95-4.8,5.86-7.37,8.63-5.05,5.44-11.19,9.67-16.61,14.67-4.58,4.22-9.88,7.33-14.71,11.13-4.18,3.29-8.84,5.96-13.24,8.98-8.77,6.04-17.46,12.18-25.81,18.82-4.78,3.8-9.29,7.84-13.63,12.08-7.52,7.35-14.9,14.85-22.33,22.3-2.03,2.03-4.25,3.73-6.96,4.78-.82.32-1.51.56-2.06-.29-.56-.86,0-1.45.56-2.05,1.68-1.78,3.35-3.58,5-5.39.5-.55,1.02-1,.37-1.97-1.63-2.44-2.9-5.12-4.6-7.51-2.34-3.28-4.8-6.43-7.7-9.31-2.9-2.88-6.04-5.4-9.6-7.04-5.25-2.41-10.97-3.45-16.82-2.38-6.94,1.27-13.26,3.52-17.5,9.84-3.58,5.34-5.24,10.93-4.08,17.32.29,1.57-.11,2.82-1.75,3.82-2.1,1.28-3.87,3.07-4.89,5.83,6.63-.99,11.81,2.01,16.82,5.24,2.11,1.36,3.32,3.73,4.94,5.62,2.77,3.25,4.96,6.79,6.49,10.64,2.13,5.35,5.37,9.73,9.34,13.86,12.54,13.07,28.02,19.37,45.78,20.93,4.62.41,9.19.64,13.83.02Z"/>
        <path class="cls-1" d="M15.79,129.23c-1.13-.09-2.48.19-1.61-1.96,1.49-3.66,3.04-7.2,5.99-9.99,1.44-1.36,2.67-2.96,3.96-4.47,3.57-4.18,8.32-4.8,13.34-4.25,1.26.14,1.96,1.86,1.43,2.82-1.35,2.41-1.96,5.37-4.64,6.92-1.1.64-1.13,2.04-1.96,2.97-3.47,3.92-7.9,5.86-12.91,6.85-1.2.24-2.13,1.45-3.6,1.1ZM37.06,109.62c-5.28,1.33-8.75,5.19-12.33,8.9-.31.32-.29.56.05.82.4.3.64-.02.85-.25,3.37-3.69,7.62-6.28,11.44-9.47Z"/>
        <path class="cls-1" d="M32.78,94.25c.55,1.51,1.68,2.64,2.58,3.92.51.72,1.16,1.75.69,2.31-.66.78-1.52-.19-2.26-.54-3.72-1.75-5.72-5.01-7.18-8.58-1.36-3.31-2.22-6.78-1.89-10.44.21-2.34.8-2.69,3-1.8,2.05.84,3.28,2.71,4.92,4.01,5.86,4.67,9.31,10.72,7.74,18.71-2.91-2.24-4.66-5.42-6.8-8.27.07-.86-.72-.77-1.16-1.06-.43.7-.28,1.27.37,1.74Z"/>
        <path class="cls-1" d="M26.27,102.97c-2.73-.74-5.45-1.57-8.21-2.18-1.15-.25-2.41-.04-3.67.2,2.93,1.72,6.96.41,9.66,3.62-8.74,1.49-16.81,1.7-23.25-5.4-1.15-1.27-1.11-2.18.4-2.79,3.96-1.6,8.29-2.55,12.26-1.18,4.72,1.63,9.76,3.16,13.12,7.4-.1.11-.2.22-.3.34Z"/>
        <path class="cls-1" d="M58.47,120.23c1.65.26,2.54,1.03,3.28,1.97,3.02,3.88,5.35,8.14,6.64,12.9.22.82.84,2.15-.47,2.45-1.26.29-1-1.1-1.22-1.87-1.29-4.4-3.43-8.37-6.18-12.02-.72-.96-1.58-1.84-2.05-3.45Z"/>
        <path class="cls-1" d="M79.07,95.87c.05,2.52-1.68,4.4-4.1,4.44-2.24.04-4.22-1.79-4.35-4.02-.13-2.17,2.03-4.51,4.19-4.54,2.2-.03,4.22,1.91,4.27,4.12Z"/>
      </g>
    </g>
  </g>
</svg>